<svg width="118" height="48" viewBox="0 0 118 48" fill="none" xmlns="http://www.w3.org/2000/svg">
<path d="M0.75 18C0.75 8.47309 8.47309 0.75 18 0.75H100C109.527 0.75 117.25 8.47309 117.25 18V30C117.25 39.5269 109.527 47.25 100 47.25H18C8.47309 47.25 0.75 39.5269 0.75 30V18Z" fill="white" stroke="#111111" stroke-width="1.5"/>
<path d="M24.994 29V19.2H26.478V27.824H30.93V29H24.994ZM34.8584 29.168C34.1958 29.168 33.5984 29.0187 33.0664 28.72C32.5438 28.412 32.1284 27.9873 31.8204 27.446C31.5124 26.8953 31.3584 26.256 31.3584 25.528C31.3584 24.8 31.5124 24.1653 31.8204 23.624C32.1378 23.0733 32.5624 22.6487 33.0944 22.35C33.6264 22.042 34.2191 21.888 34.8724 21.888C35.5351 21.888 36.1278 22.042 36.6504 22.35C37.1824 22.6487 37.6024 23.0733 37.9104 23.624C38.2278 24.1653 38.3864 24.8 38.3864 25.528C38.3864 26.256 38.2278 26.8953 37.9104 27.446C37.6024 27.9873 37.1824 28.412 36.6504 28.72C36.1184 29.0187 35.5211 29.168 34.8584 29.168ZM34.8584 27.894C35.2131 27.894 35.5398 27.8053 35.8384 27.628C36.1464 27.4507 36.3938 27.1893 36.5804 26.844C36.7671 26.4893 36.8604 26.0507 36.8604 25.528C36.8604 25.0053 36.7671 24.5713 36.5804 24.226C36.4031 23.8713 36.1604 23.6053 35.8524 23.428C35.5538 23.2507 35.2271 23.162 34.8724 23.162C34.5178 23.162 34.1864 23.2507 33.8784 23.428C33.5798 23.6053 33.3371 23.8713 33.1504 24.226C32.9638 24.5713 32.8704 25.0053 32.8704 25.528C32.8704 26.0507 32.9638 26.4893 33.1504 26.844C33.3371 27.1893 33.5798 27.4507 33.8784 27.628C34.1771 27.8053 34.5038 27.894 34.8584 27.894ZM41.9041 26.872C41.5401 26.872 41.2041 26.83 40.8961 26.746L40.2941 27.334C40.3968 27.3993 40.5228 27.4553 40.6721 27.502C40.8215 27.5487 41.0315 27.5907 41.3021 27.628C41.5728 27.6653 41.9415 27.7027 42.4081 27.74C43.3321 27.824 43.9995 28.048 44.4101 28.412C44.8208 28.7667 45.0261 29.2427 45.0261 29.84C45.0261 30.2507 44.9141 30.638 44.6901 31.002C44.4755 31.3753 44.1348 31.674 43.6681 31.898C43.2108 32.1313 42.6228 32.248 41.9041 32.248C40.9335 32.248 40.1448 32.0613 39.5381 31.688C38.9408 31.324 38.6421 30.7687 38.6421 30.022C38.6421 29.7327 38.7168 29.4433 38.8661 29.154C39.0248 28.874 39.2721 28.608 39.6081 28.356C39.4121 28.272 39.2395 28.1833 39.0901 28.09C38.9501 27.9873 38.8241 27.8847 38.7121 27.782V27.446L39.9161 26.214C39.3748 25.7473 39.1041 25.136 39.1041 24.38C39.1041 23.9227 39.2115 23.5073 39.4261 23.134C39.6501 22.7513 39.9721 22.448 40.3921 22.224C40.8121 22 41.3161 21.888 41.9041 21.888C42.2961 21.888 42.6601 21.944 42.9961 22.056H45.5861V23.036L44.3541 23.106C44.5781 23.4887 44.6901 23.9133 44.6901 24.38C44.6901 24.8467 44.5781 25.2667 44.3541 25.64C44.1395 26.0133 43.8221 26.312 43.4021 26.536C42.9915 26.76 42.4921 26.872 41.9041 26.872ZM41.9041 25.71C42.3335 25.71 42.6788 25.598 42.9401 25.374C43.2108 25.1407 43.3461 24.814 43.3461 24.394C43.3461 23.9647 43.2108 23.638 42.9401 23.414C42.6788 23.19 42.3335 23.078 41.9041 23.078C41.4655 23.078 41.1108 23.19 40.8401 23.414C40.5788 23.638 40.4481 23.9647 40.4481 24.394C40.4481 24.814 40.5788 25.1407 40.8401 25.374C41.1108 25.598 41.4655 25.71 41.9041 25.71ZM40.0421 29.882C40.0421 30.2833 40.2195 30.582 40.5741 30.778C40.9288 30.9833 41.3721 31.086 41.9041 31.086C42.4175 31.086 42.8328 30.974 43.1501 30.75C43.4675 30.5353 43.6261 30.246 43.6261 29.882C43.6261 29.6113 43.5188 29.378 43.3041 29.182C43.0895 28.9953 42.6835 28.8787 42.0861 28.832C41.6381 28.804 41.2415 28.762 40.8961 28.706C40.5695 28.8833 40.3455 29.0747 40.2241 29.28C40.1028 29.4853 40.0421 29.686 40.0421 29.882ZM52.5651 29.168C51.9025 29.168 51.3051 29.0187 50.7731 28.72C50.2505 28.412 49.8351 27.9873 49.5271 27.446C49.2191 26.8953 49.0651 26.256 49.0651 25.528C49.0651 24.8 49.2191 24.1653 49.5271 23.624C49.8445 23.0733 50.2691 22.6487 50.8011 22.35C51.3331 22.042 51.9258 21.888 52.5791 21.888C53.2418 21.888 53.8345 22.042 54.3571 22.35C54.8891 22.6487 55.3091 23.0733 55.6171 23.624C55.9345 24.1653 56.0931 24.8 56.0931 25.528C56.0931 26.256 55.9345 26.8953 55.6171 27.446C55.3091 27.9873 54.8891 28.412 54.3571 28.72C53.8251 29.0187 53.2278 29.168 52.5651 29.168ZM52.5651 27.894C52.9198 27.894 53.2465 27.8053 53.5451 27.628C53.8531 27.4507 54.1005 27.1893 54.2871 26.844C54.4738 26.4893 54.5671 26.0507 54.5671 25.528C54.5671 25.0053 54.4738 24.5713 54.2871 24.226C54.1098 23.8713 53.8671 23.6053 53.5591 23.428C53.2605 23.2507 52.9338 23.162 52.5791 23.162C52.2245 23.162 51.8931 23.2507 51.5851 23.428C51.2865 23.6053 51.0438 23.8713 50.8571 24.226C50.6705 24.5713 50.5771 25.0053 50.5771 25.528C50.5771 26.0507 50.6705 26.4893 50.8571 26.844C51.0438 27.1893 51.2865 27.4507 51.5851 27.628C51.8838 27.8053 52.2105 27.894 52.5651 27.894ZM59.7 29.168C58.86 29.168 58.1973 28.9067 57.712 28.384C57.236 27.8613 56.998 27.082 56.998 26.046V22.056H58.482V25.892C58.482 27.236 59.0327 27.908 60.134 27.908C60.6847 27.908 61.1373 27.712 61.492 27.32C61.8467 26.928 62.024 26.368 62.024 25.64V22.056H63.508V29H62.192L62.08 27.782C61.8653 28.2113 61.548 28.552 61.128 28.804C60.7173 29.0467 60.2413 29.168 59.7 29.168ZM67.7478 29C67.0665 29 66.5251 28.8367 66.1238 28.51C65.7225 28.174 65.5218 27.5813 65.5218 26.732V23.302H64.3318V22.056H65.5218L65.7038 20.292H67.0058V22.056H68.9658V23.302H67.0058V26.732C67.0058 27.1147 67.0851 27.3807 67.2438 27.53C67.4118 27.67 67.6965 27.74 68.0978 27.74H68.8958V29H67.7478Z" fill="#111111"/>
<path d="M77.333 24H90.6663M90.6663 24L85.6663 19M90.6663 24L85.6663 29" stroke="#EAC645" stroke-width="2" stroke-linecap="round" stroke-linejoin="round"/>
</svg>
