<svg aria-hidden="true" style="position:absolute;width:0;height:0;overflow:hidden" xmlns="http://www.w3.org/2000/svg">
  <defs>
    <symbol id="icon-arrow-back-ios-rounded" viewBox="0 0 32 32">
      <path fill="#fff" style="fill:var(--color1, #fff)" d="M4.5 19.6 15.7 8.367c.133-.133.278-.228.433-.283s.322-.084.5-.084.345.028.5.084.3.149.433.283L28.799 19.6c.311.311.467.7.467 1.167s-.167.867-.5 1.2c-.333.333-.722.5-1.167.5s-.833-.167-1.167-.5l-9.8-9.8-9.8 9.8c-.311.311-.694.467-1.149.467s-.851-.167-1.184-.5-.5-.722-.5-1.167c0-.444.167-.833.5-1.167z"/>
    </symbol>
    <symbol id="icon-arrow-narrow-right" viewBox="0 0 32 32">
      <path fill="none" stroke="#eac645" style="stroke:var(--color2, #eac645)" stroke-linejoin="round" stroke-linecap="round" stroke-width="3.2" d="M5.333 16h21.333m.001 0-8-8m8 8-8 8"/>
    </symbol>
    <symbol id="icon-burger" viewBox="0 0 32 32">
      <path stroke-linejoin="round" stroke-linecap="round" stroke-width="2.286" d="M22.667 13.333H4M28 8H4M28 18.667H4M22.667 24H4" stroke="#111"/>
    </symbol>
    <symbol id="icon-caret-down" viewBox="0 0 28 32">
      <path fill="#fff" style="fill:var(--color1, #fff)" d="M5.898 12h16.513l-7.423 8.391c-.221.25-.521.39-.834.39s-.613-.14-.834-.39L5.897 12z"/>
    </symbol>
    <symbol id="icon-lock" viewBox="0 0 32 32">
      <path stroke-linejoin="round" stroke-linecap="round" stroke-width="2.286" d="M22.667 14.667v-4a6.667 6.667 0 0 0-13.334 0v4M10.4 28h11.2c2.24 0 3.36 0 4.216-.436a3.991 3.991 0 0 0 1.748-1.748C28 24.96 28 23.84 28 21.6v-.533c0-2.24 0-3.36-.436-4.216a3.991 3.991 0 0 0-1.748-1.748c-.856-.436-1.976-.436-4.216-.436H10.4c-2.24 0-3.36 0-4.216.436a3.996 3.996 0 0 0-1.748 1.748C4 17.707 4 18.827 4 21.067v.533c0 2.24 0 3.36.436 4.216a3.991 3.991 0 0 0 1.748 1.748C7.04 28 8.16 28 10.4 28z" fill="none" stroke="#111"/>
    </symbol>
    <symbol id="icon-logo" viewBox="0 0 32 32">
      <path fill="#f6f6f6" style="fill:var(--color3, #f6f6f6)" d="m0 0 16.343 16.171L32 32V0H0z"/>
      <path fill="#f6f6f6" style="fill:var(--color3, #f6f6f6)" d="M4.457 4.229 16.4 16.058l11.257 11.486h-23.2V4.23z"/>
      <path fill="#4f2ee8" style="fill:var(--color4, #4f2ee8)" d="M27.733 27.618 15.79 15.789 4.533 4.303h23.2v23.314z"/>
      <path fill="#4f2ee8" style="fill:var(--color4, #4f2ee8)" d="m9.257 9.029 13.6 13.6h-13.6v-13.6z"/>
      <path fill="#f6f6f6" style="fill:var(--color3, #f6f6f6)" d="m9.257 9.029 13.6 13.6v-13.6h-13.6z"/>
    </symbol>
    <symbol id="icon-mail" viewBox="0 0 32 32">
      <path stroke-linejoin="round" stroke-linecap="round" stroke-width="2.286" d="m28.666 24-8.857-8m-7.619 0-8.857 8M2.667 9.333l10.887 7.621c.882.617 1.322.926 1.802 1.045.423.106.866.106 1.29 0 .479-.12.92-.428 1.802-1.045l10.887-7.621M9.067 26.667h13.867c2.24 0 3.36 0 4.216-.436a3.996 3.996 0 0 0 1.748-1.748c.436-.856.436-1.976.436-4.216v-8.533c0-2.24 0-3.36-.436-4.216A3.991 3.991 0 0 0 27.15 5.77c-.856-.436-1.976-.436-4.216-.436H9.067c-2.24 0-3.36 0-4.216.436a3.991 3.991 0 0 0-1.748 1.748c-.436.856-.436 1.976-.436 4.216v8.533c0 2.24 0 3.36.436 4.216a3.996 3.996 0 0 0 1.748 1.748c.856.436 1.976.436 4.216.436z" fill="none" stroke="#111"/>
    </symbol>
    <symbol id="icon-trash" viewBox="0 0 32 32">
      <path fill="none" stroke="#fff" style="stroke:var(--color1, #fff)" stroke-linejoin="round" stroke-linecap="round" stroke-width="2.909" d="M12 4h8M4 8h24m-2.667 0-.935 14.026c-.14 2.104-.21 3.157-.665 3.954a4 4 0 0 1-1.731 1.619c-.826.4-1.881.4-3.99.4h-4.025c-2.109 0-3.163 0-3.99-.4a4.005 4.005 0 0 1-1.731-1.619c-.455-.798-.525-1.85-.665-3.954L6.666 8m6.667 6v6.667M18.667 14v6.667"/>
    </symbol>
    <symbol id="icon-user" viewBox="0 0 32 32">
      <path fill="#f6f6f6" style="fill:var(--color3, #f6f6f6)" d="M32 16c0 8.837-7.163 16-16 16S0 24.837 0 16 7.163 0 16 0s16 7.163 16 16z"/>
      <path fill="#4f2ee8" style="fill:var(--color4, #4f2ee8)" d="M10.523 22.847a5.477 5.477 0 1 1 10.954 0H10.522zM16 16.685c-2.27 0-4.108-1.838-4.108-4.108S13.73 8.469 16 8.469c2.27 0 4.108 1.838 4.108 4.108S18.27 16.685 16 16.685z"/>
    </symbol>
    <symbol id="icon-x-close" viewBox="0 0 32 32">
      <path stroke-linejoin="round" stroke-linecap="round" stroke-width="3.429" d="M24 8 8 24M8 8l16 16" fill="none" stroke="#111"/>
    </symbol>
    <symbol id="icon-untitled" viewBox="0 0 22 32">
      <path fill="#fff" style="fill:var(--color1, #fff)" d="M.528 0h21.047c.291 0 .528.236.528.528v30.944a.528.528 0 0 1-.528.528H.528A.528.528 0 0 1 0 31.472V.528C0 .237.236 0 .528 0z"/>
      <path fill="#4f2ee8" style="fill:var(--color4, #4f2ee8)" d="M13.782 14.798a2.724 2.724 0 0 0-.388-.165v3.256a2.657 2.657 0 0 0-.924-.168c-.501 0-.998.146-1.452.428v-3.275a2.825 2.825 0 0 0-2.764-.076.264.264 0 0 0-.14.238v3.27a.264.264 0 0 0 .391.236 2.242 2.242 0 0 1 1.061-.279c.546 0 1.05.222 1.452.541.401-.319.905-.541 1.452-.541.383 0 .742.108 1.061.282a.266.266 0 0 0 .391-.236v-3.273c0-.1-.053-.195-.14-.238zm-3.291 3.091c-.301-.111-.61-.168-.924-.168s-.623.057-.924.168v-2.682a2.304 2.304 0 0 1 1.848.003v2.68zm2.375-4.363-1.32 1.353v2.571l1.32-1.218v-2.707z"/>
    </symbol>
  </defs>
</svg>